<mxfile host="app.diagrams.net" modified="2021-02-18T17:24:24.663Z" agent="5.0 (Macintosh; Intel Mac OS X 10_14_6) AppleWebKit/537.36 (KHTML, like Gecko) Chrome/88.0.4324.150 Safari/537.36" etag="NjHObOBl2YRFpM-8iiWZ" version="14.3.2" type="github">
  <diagram id="kU2Bon3Jjfkuj31WxuBQ" name="Page-1">
    <mxGraphModel dx="1188" dy="661" grid="1" gridSize="10" guides="1" tooltips="1" connect="1" arrows="1" fold="1" page="1" pageScale="1" pageWidth="827" pageHeight="1169" math="0" shadow="0">
      <root>
        <mxCell id="0" />
        <mxCell id="1" parent="0" />
        <mxCell id="GiqqVYzLqmCzxt6aDNmL-1" value="Base phrase" style="rounded=1;whiteSpace=wrap;html=1;fillColor=#d5e8d4;strokeColor=#82b366;" vertex="1" parent="1">
          <mxGeometry x="276" y="169" width="136" height="30" as="geometry" />
        </mxCell>
        <mxCell id="GiqqVYzLqmCzxt6aDNmL-4" value="&lt;b&gt;Baseline message&lt;/b&gt;&lt;br&gt;(msg_01)" style="text;html=1;strokeColor=none;fillColor=none;align=center;verticalAlign=middle;whiteSpace=wrap;rounded=0;" vertex="1" parent="1">
          <mxGeometry x="110" y="174" width="110" height="20" as="geometry" />
        </mxCell>
        <mxCell id="GiqqVYzLqmCzxt6aDNmL-5" value="&lt;b&gt;Customized messages&lt;/b&gt;&lt;br&gt;(msg_03, msg_05, msg_06, msg_07, msg_10)" style="text;html=1;strokeColor=none;fillColor=none;align=center;verticalAlign=middle;whiteSpace=wrap;rounded=0;" vertex="1" parent="1">
          <mxGeometry x="85" y="260" width="160" height="20" as="geometry" />
        </mxCell>
        <mxCell id="GiqqVYzLqmCzxt6aDNmL-6" value="&lt;b&gt;Generic messages&lt;br&gt;&lt;/b&gt;(msg_04, msg_08, msg_09, msg_12, msg_13)" style="text;html=1;strokeColor=none;fillColor=none;align=center;verticalAlign=middle;whiteSpace=wrap;rounded=0;" vertex="1" parent="1">
          <mxGeometry x="85" y="347" width="160" height="20" as="geometry" />
        </mxCell>
        <mxCell id="GiqqVYzLqmCzxt6aDNmL-9" value="&lt;b&gt;Reversed-order message&lt;br&gt;&lt;/b&gt;(msg_11)" style="text;html=1;strokeColor=none;fillColor=none;align=center;verticalAlign=middle;whiteSpace=wrap;rounded=0;" vertex="1" parent="1">
          <mxGeometry x="85" y="433" width="160" height="20" as="geometry" />
        </mxCell>
        <mxCell id="GiqqVYzLqmCzxt6aDNmL-12" value="&lt;b&gt;Wording variation messages&lt;br&gt;&lt;/b&gt;(msg_02, msg_14)" style="text;html=1;strokeColor=none;fillColor=none;align=center;verticalAlign=middle;whiteSpace=wrap;rounded=0;" vertex="1" parent="1">
          <mxGeometry x="72.5" y="519" width="185" height="20" as="geometry" />
        </mxCell>
        <mxCell id="GiqqVYzLqmCzxt6aDNmL-13" value="Variations of the&lt;br&gt;base phrase" style="rounded=1;whiteSpace=wrap;html=1;fillColor=#fad7ac;strokeColor=#b46504;" vertex="1" parent="1">
          <mxGeometry x="276" y="509" width="136" height="30" as="geometry" />
        </mxCell>
        <mxCell id="GiqqVYzLqmCzxt6aDNmL-14" value="" style="group" vertex="1" connectable="0" parent="1">
          <mxGeometry x="276" y="254" width="272" height="30" as="geometry" />
        </mxCell>
        <mxCell id="GiqqVYzLqmCzxt6aDNmL-2" value="Custom phrase" style="rounded=1;whiteSpace=wrap;html=1;fillColor=#dae8fc;strokeColor=#6c8ebf;" vertex="1" parent="GiqqVYzLqmCzxt6aDNmL-14">
          <mxGeometry width="136" height="30" as="geometry" />
        </mxCell>
        <mxCell id="GiqqVYzLqmCzxt6aDNmL-7" value="Base phrase" style="rounded=1;whiteSpace=wrap;html=1;fillColor=#d5e8d4;strokeColor=#82b366;" vertex="1" parent="GiqqVYzLqmCzxt6aDNmL-14">
          <mxGeometry x="136" width="136" height="30" as="geometry" />
        </mxCell>
        <mxCell id="GiqqVYzLqmCzxt6aDNmL-15" value="" style="group" vertex="1" connectable="0" parent="1">
          <mxGeometry x="276" y="339" width="272" height="30" as="geometry" />
        </mxCell>
        <mxCell id="GiqqVYzLqmCzxt6aDNmL-3" value="Generic phrase" style="rounded=1;whiteSpace=wrap;html=1;fillColor=#fad9d5;strokeColor=#ae4132;" vertex="1" parent="GiqqVYzLqmCzxt6aDNmL-15">
          <mxGeometry width="136" height="30" as="geometry" />
        </mxCell>
        <mxCell id="GiqqVYzLqmCzxt6aDNmL-8" value="Base phrase" style="rounded=1;whiteSpace=wrap;html=1;fillColor=#d5e8d4;strokeColor=#82b366;" vertex="1" parent="GiqqVYzLqmCzxt6aDNmL-15">
          <mxGeometry x="136" width="136" height="30" as="geometry" />
        </mxCell>
        <mxCell id="GiqqVYzLqmCzxt6aDNmL-16" value="" style="group" vertex="1" connectable="0" parent="1">
          <mxGeometry x="276" y="424" width="272" height="30" as="geometry" />
        </mxCell>
        <mxCell id="GiqqVYzLqmCzxt6aDNmL-10" value="Custom phrase&lt;br&gt;(same as msg_10)" style="rounded=1;whiteSpace=wrap;html=1;fillColor=#dae8fc;strokeColor=#6c8ebf;" vertex="1" parent="GiqqVYzLqmCzxt6aDNmL-16">
          <mxGeometry x="136" width="136" height="30" as="geometry" />
        </mxCell>
        <mxCell id="GiqqVYzLqmCzxt6aDNmL-11" value="Base phrase" style="rounded=1;whiteSpace=wrap;html=1;fillColor=#d5e8d4;strokeColor=#82b366;" vertex="1" parent="GiqqVYzLqmCzxt6aDNmL-16">
          <mxGeometry width="136" height="30" as="geometry" />
        </mxCell>
        <mxCell id="GiqqVYzLqmCzxt6aDNmL-42" value="&lt;h1&gt;&lt;font style=&quot;font-size: 18px&quot;&gt;Example: msg_03&lt;/font&gt;&lt;/h1&gt;&lt;p&gt;&lt;br&gt;&lt;/p&gt;" style="text;html=1;strokeColor=none;fillColor=none;spacing=5;spacingTop=-20;whiteSpace=wrap;overflow=hidden;rounded=0;" vertex="1" parent="1">
          <mxGeometry x="90" y="710" width="190" height="60" as="geometry" />
        </mxCell>
        <mxCell id="GiqqVYzLqmCzxt6aDNmL-45" value="" style="group" vertex="1" connectable="0" parent="1">
          <mxGeometry x="90" y="824" width="311" height="30" as="geometry" />
        </mxCell>
        <mxCell id="GiqqVYzLqmCzxt6aDNmL-24" value="&amp;nbsp;Click here to open Ming’s November learning report.&amp;nbsp;" style="text;html=1;strokeColor=none;fillColor=none;align=center;verticalAlign=middle;whiteSpace=wrap;rounded=0;" vertex="1" parent="GiqqVYzLqmCzxt6aDNmL-45">
          <mxGeometry x="161" y="5" width="150" height="20" as="geometry" />
        </mxCell>
        <mxCell id="GiqqVYzLqmCzxt6aDNmL-27" value="Base phrase" style="rounded=1;whiteSpace=wrap;html=1;fillColor=#d5e8d4;strokeColor=#82b366;" vertex="1" parent="GiqqVYzLqmCzxt6aDNmL-45">
          <mxGeometry width="136" height="30" as="geometry" />
        </mxCell>
        <mxCell id="GiqqVYzLqmCzxt6aDNmL-33" value="=" style="text;html=1;strokeColor=none;fillColor=none;align=center;verticalAlign=middle;whiteSpace=wrap;rounded=0;" vertex="1" parent="GiqqVYzLqmCzxt6aDNmL-45">
          <mxGeometry x="128" y="5" width="40" height="20" as="geometry" />
        </mxCell>
        <mxCell id="GiqqVYzLqmCzxt6aDNmL-46" value="" style="group" vertex="1" connectable="0" parent="1">
          <mxGeometry x="90" y="780" width="319" height="30" as="geometry" />
        </mxCell>
        <mxCell id="GiqqVYzLqmCzxt6aDNmL-23" value="&lt;div&gt;In November, Ming’s English correct rate was 93%.&lt;/div&gt;" style="text;html=1;strokeColor=none;fillColor=none;align=center;verticalAlign=middle;whiteSpace=wrap;rounded=0;" vertex="1" parent="GiqqVYzLqmCzxt6aDNmL-46">
          <mxGeometry x="149" y="5" width="170" height="20" as="geometry" />
        </mxCell>
        <mxCell id="GiqqVYzLqmCzxt6aDNmL-26" value="Custom phrase (msg_03)" style="rounded=1;whiteSpace=wrap;html=1;fillColor=#dae8fc;strokeColor=#6c8ebf;" vertex="1" parent="GiqqVYzLqmCzxt6aDNmL-46">
          <mxGeometry width="136" height="30" as="geometry" />
        </mxCell>
        <mxCell id="GiqqVYzLqmCzxt6aDNmL-31" value="=" style="text;html=1;strokeColor=none;fillColor=none;align=center;verticalAlign=middle;whiteSpace=wrap;rounded=0;" vertex="1" parent="GiqqVYzLqmCzxt6aDNmL-46">
          <mxGeometry x="128" y="5" width="40" height="20" as="geometry" />
        </mxCell>
        <mxCell id="GiqqVYzLqmCzxt6aDNmL-53" value="" style="group" vertex="1" connectable="0" parent="1">
          <mxGeometry x="96" y="887" width="372" height="93" as="geometry" />
        </mxCell>
        <mxCell id="GiqqVYzLqmCzxt6aDNmL-47" value="&lt;h1 style=&quot;color: rgb(0 , 0 , 0) ; font-family: &amp;#34;helvetica&amp;#34; ; font-style: normal ; letter-spacing: normal ; text-align: left ; text-indent: 0px ; text-transform: none ; word-spacing: 0px ; background-color: rgb(248 , 249 , 250)&quot;&gt;&lt;font style=&quot;font-weight: normal ; font-size: 14px&quot;&gt;msg_03&lt;/font&gt;&lt;/h1&gt;" style="text;whiteSpace=wrap;html=1;" vertex="1" parent="GiqqVYzLqmCzxt6aDNmL-53">
          <mxGeometry width="80" height="70.5" as="geometry" />
        </mxCell>
        <mxCell id="GiqqVYzLqmCzxt6aDNmL-36" value="" style="group" vertex="1" connectable="0" parent="GiqqVYzLqmCzxt6aDNmL-53">
          <mxGeometry x="89" y="23" width="272" height="30" as="geometry" />
        </mxCell>
        <mxCell id="GiqqVYzLqmCzxt6aDNmL-37" value="Custom phrase&lt;br&gt;(msg_03)" style="rounded=1;whiteSpace=wrap;html=1;fillColor=#dae8fc;strokeColor=#6c8ebf;" vertex="1" parent="GiqqVYzLqmCzxt6aDNmL-36">
          <mxGeometry width="136" height="30" as="geometry" />
        </mxCell>
        <mxCell id="GiqqVYzLqmCzxt6aDNmL-38" value="Base phrase" style="rounded=1;whiteSpace=wrap;html=1;fillColor=#d5e8d4;strokeColor=#82b366;" vertex="1" parent="GiqqVYzLqmCzxt6aDNmL-36">
          <mxGeometry x="136" width="136" height="30" as="geometry" />
        </mxCell>
        <mxCell id="GiqqVYzLqmCzxt6aDNmL-39" value="=" style="text;html=1;strokeColor=none;fillColor=none;align=center;verticalAlign=middle;whiteSpace=wrap;rounded=0;" vertex="1" parent="GiqqVYzLqmCzxt6aDNmL-53">
          <mxGeometry x="49" y="73" width="40" height="20" as="geometry" />
        </mxCell>
        <mxCell id="GiqqVYzLqmCzxt6aDNmL-40" value="&lt;div&gt;In November, Ming’s English correct rate was 93%.&amp;nbsp;&lt;/div&gt;&amp;nbsp;Click here to open Ming’s November learning report.&amp;nbsp;" style="text;html=1;strokeColor=none;fillColor=none;align=center;verticalAlign=middle;whiteSpace=wrap;rounded=0;" vertex="1" parent="GiqqVYzLqmCzxt6aDNmL-53">
          <mxGeometry x="80" y="73" width="292" height="20" as="geometry" />
        </mxCell>
        <mxCell id="GiqqVYzLqmCzxt6aDNmL-48" value="=" style="text;html=1;strokeColor=none;fillColor=none;align=center;verticalAlign=middle;whiteSpace=wrap;rounded=0;" vertex="1" parent="GiqqVYzLqmCzxt6aDNmL-53">
          <mxGeometry x="49" y="28" width="40" height="20" as="geometry" />
        </mxCell>
      </root>
    </mxGraphModel>
  </diagram>
</mxfile>
